<?xml version="1.0" encoding="utf-8"?>
<!-- Generator: Adobe Illustrator 23.0.6, SVG Export Plug-In . SVG Version: 6.00 Build 0)  -->
<svg version="1.1" id="Layer_1" xmlns="http://www.w3.org/2000/svg" xmlns:xlink="http://www.w3.org/1999/xlink" x="0px" y="0px"
	 viewBox="0 0 237 213" style="enable-background:new 0 0 237 213;" xml:space="preserve">
<style type="text/css">
	.st0{fill:#FFFFFF;}
</style>
<path class="st0" d="M44.82,205.82c0-17.18,0-33.08,0-49.68c-4.39,0-8.33,0.06-12.26-0.01c-14.01-0.24-24.56-10.85-24.59-24.92
	c-0.07-33-0.06-65.99,0-98.99C7.98,17.96,18.65,7.11,32.9,7.09c57-0.08,113.99-0.07,170.99-0.01c14.55,0.02,25.14,10.81,25.16,25.42
	c0.04,32.66,0.03,65.33,0,97.99c-0.01,15.21-10.51,25.62-25.89,25.64c-31.5,0.04-63-0.07-94.49,0.15c-2.84,0.02-6.23,1.24-8.42,3.05
	C82.01,174.37,63.99,189.68,44.82,205.82z M57.11,168.59c11.49-7.74,21.88-14.94,32.52-21.75c2.62-1.67,6.07-2.85,9.14-2.87
	c34.32-0.2,68.64-0.12,102.96-0.13c10.57,0,15.11-4.59,15.12-15.26c0.02-31.32,0.02-62.64,0-93.97
	c-0.01-10.66-4.47-15.08-15.26-15.08c-55.31-0.01-110.63-0.01-165.94,0c-11.31,0-15.51,4.31-15.52,15.82
	c-0.01,30.49,0,60.98,0,91.47c0,13.07,3.91,17,16.88,17c6.58,0,13.15,0,20.09,0C57.11,152.3,57.11,159.89,57.11,168.59z"/>
<path class="st0" d="M118.52,69.31c6.82,0.01,12.37,5.67,12.24,12.49c-0.12,6.66-5.48,12.09-12.03,12.2
	c-6.77,0.11-12.4-5.41-12.5-12.24C106.14,74.95,111.71,69.3,118.52,69.31z"/>
<path class="st0" d="M69.18,94c-6.74-0.09-12.32-5.88-12.16-12.63c0.16-6.81,5.88-12.24,12.7-12.06
	c6.71,0.18,11.79,5.52,11.76,12.36C81.45,88.71,76.08,94.09,69.18,94z"/>
<path class="st0" d="M167.62,69.3c6.8,0.01,12.44,5.66,12.36,12.4c-0.07,6.8-5.75,12.38-12.5,12.3
	c-6.66-0.08-11.85-5.37-11.96-12.18C155.41,74.79,160.72,69.29,167.62,69.3z"/>
</svg>
