<?xml version="1.0" encoding="utf-8"?>
<!-- Generator: Adobe Illustrator 23.0.6, SVG Export Plug-In . SVG Version: 6.00 Build 0)  -->
<svg version="1.1" id="Layer_1" xmlns="http://www.w3.org/2000/svg" xmlns:xlink="http://www.w3.org/1999/xlink" x="0px" y="0px"
	 viewBox="0 0 872 741" style="enable-background:new 0 0 872 741;" xml:space="preserve">
<style type="text/css">
	.st0{fill:#FFFFFF;}
</style>
<path class="st0" d="M451.38,152.87c8.2-12.77,15.35-25.86,24.31-37.55c38.51-50.19,89.53-78.87,152.47-85.25
	c51.26-5.19,98.36,6.79,139.78,38.11c35.11,26.56,57.32,62.14,70.4,103.74c9.38,29.82,13.25,60.5,13.11,91.66
	c-0.13,29.67-9.54,56.97-22.75,83.11c-19.78,39.15-46.53,73.35-75.71,105.77c-41.9,46.56-88.04,88.7-136.47,128.26
	c-45.67,37.31-92.24,73.52-138.37,110.28c-7.69,6.12-15.21,12.46-22.67,18.86c-2.07,1.77-3.44,2.36-5.9,0.46
	c-56.51-43.48-113.63-86.2-169.5-130.48c-47.71-37.81-92.29-79.23-132.45-125.16C118.69,421.56,93.01,386.25,74,346.3
	c-19.73-41.46-25.22-84.9-19.87-130.1c4.61-38.94,16.67-75.06,40.86-106.42c29.08-37.69,67.76-60.29,113.98-69.42
	c63.02-12.44,121.98-1.29,175.76,34.24c28.56,18.86,50.3,43.95,64.88,75.07C450.16,150.85,450.87,151.95,451.38,152.87z
	 M451.44,231.25c-1.12-2.23-2.06-4.14-3.03-6.04c-18.89-37.1-44.18-68.98-77.67-93.94c-36.81-27.43-77.68-43.93-124.24-42.95
	c-39.74,0.84-73.66,15.41-100.11,45.69c-16.67,19.09-27.2,41.43-33.24,65.87c-7.01,28.35-10.65,57.09-5.49,86.16
	c4.49,25.3,15.7,48.04,29.12,69.69c25.56,41.25,58.05,76.74,92.76,110.28c67.58,65.3,142.59,121.26,219.65,174.66
	c2.55,1.77,4.23,1.6,6.56-0.18c5.95-4.56,12.08-8.88,18.14-13.31c68.12-49.82,134.43-101.83,194.61-161.22
	c33.04-32.61,64.07-66.95,88.86-106.45c14.62-23.3,27.63-47.63,30.89-75.26c4.77-40.32,0.29-79.94-15.6-117.61
	c-14.71-34.86-39.19-60-75.92-71.77c-26.09-8.36-52.61-8.36-78.99-2.09c-63.2,15.02-111.64,51.19-147.29,104.91
	C463.48,208.18,457.96,219.64,451.44,231.25z"/>
</svg>
